<?xml version='1.0' encoding='UTF-8'?>
<svg width="43mm" height="43mm" version="1.1" viewBox="0 0 43 43" xmlns="http://www.w3.org/2000/svg"><path d="M3,3H4V4H3zM4,3H5V4H4zM5,3H6V4H5zM6,3H7V4H6zM7,3H8V4H7zM8,3H9V4H8zM9,3H10V4H9zM11,3H12V4H11zM16,3H17V4H16zM17,3H18V4H17zM19,3H20V4H19zM20,3H21V4H20zM21,3H22V4H21zM22,3H23V4H22zM23,3H24V4H23zM24,3H25V4H24zM28,3H29V4H28zM29,3H30V4H29zM30,3H31V4H30zM33,3H34V4H33zM34,3H35V4H34zM35,3H36V4H35zM36,3H37V4H36zM37,3H38V4H37zM38,3H39V4H38zM39,3H40V4H39zM3,4H4V5H3zM9,4H10V5H9zM11,4H12V5H11zM16,4H17V5H16zM17,4H18V5H17zM19,4H20V5H19zM20,4H21V5H20zM22,4H23V5H22zM27,4H28V5H27zM28,4H29V5H28zM31,4H32V5H31zM33,4H34V5H33zM39,4H40V5H39zM3,5H4V6H3zM5,5H6V6H5zM6,5H7V6H6zM7,5H8V6H7zM9,5H10V6H9zM11,5H12V6H11zM12,5H13V6H12zM13,5H14V6H13zM16,5H17V6H16zM22,5H23V6H22zM23,5H24V6H23zM24,5H25V6H24zM25,5H26V6H25zM26,5H27V6H26zM27,5H28V6H27zM28,5H29V6H28zM29,5H30V6H29zM30,5H31V6H30zM33,5H34V6H33zM35,5H36V6H35zM36,5H37V6H36zM37,5H38V6H37zM39,5H40V6H39zM3,6H4V7H3zM5,6H6V7H5zM6,6H7V7H6zM7,6H8V7H7zM9,6H10V7H9zM12,6H13V7H12zM13,6H14V7H13zM17,6H18V7H17zM19,6H20V7H19zM20,6H21V7H20zM21,6H22V7H21zM23,6H24V7H23zM24,6H25V7H24zM26,6H27V7H26zM28,6H29V7H28zM29,6H30V7H29zM33,6H34V7H33zM35,6H36V7H35zM36,6H37V7H36zM37,6H38V7H37zM39,6H40V7H39zM3,7H4V8H3zM5,7H6V8H5zM6,7H7V8H6zM7,7H8V8H7zM9,7H10V8H9zM11,7H12V8H11zM12,7H13V8H12zM13,7H14V8H13zM15,7H16V8H15zM16,7H17V8H16zM19,7H20V8H19zM24,7H25V8H24zM27,7H28V8H27zM29,7H30V8H29zM31,7H32V8H31zM33,7H34V8H33zM35,7H36V8H35zM36,7H37V8H36zM37,7H38V8H37zM39,7H40V8H39zM3,8H4V9H3zM9,8H10V9H9zM13,8H14V9H13zM15,8H16V9H15zM16,8H17V9H16zM19,8H20V9H19zM25,8H26V9H25zM26,8H27V9H26zM27,8H28V9H27zM33,8H34V9H33zM39,8H40V9H39zM3,9H4V10H3zM4,9H5V10H4zM5,9H6V10H5zM6,9H7V10H6zM7,9H8V10H7zM8,9H9V10H8zM9,9H10V10H9zM11,9H12V10H11zM13,9H14V10H13zM15,9H16V10H15zM17,9H18V10H17zM19,9H20V10H19zM21,9H22V10H21zM23,9H24V10H23zM25,9H26V10H25zM27,9H28V10H27zM29,9H30V10H29zM31,9H32V10H31zM33,9H34V10H33zM34,9H35V10H34zM35,9H36V10H35zM36,9H37V10H36zM37,9H38V10H37zM38,9H39V10H38zM39,9H40V10H39zM12,10H13V11H12zM15,10H16V11H15zM16,10H17V11H16zM19,10H20V11H19zM20,10H21V11H20zM21,10H22V11H21zM22,10H23V11H22zM23,10H24V11H23zM25,10H26V11H25zM28,10H29V11H28zM30,10H31V11H30zM31,10H32V11H31zM3,11H4V12H3zM6,11H7V12H6zM7,11H8V12H7zM8,11H9V12H8zM9,11H10V12H9zM10,11H11V12H10zM11,11H12V12H11zM12,11H13V12H12zM14,11H15V12H14zM15,11H16V12H15zM17,11H18V12H17zM18,11H19V12H18zM23,11H24V12H23zM24,11H25V12H24zM29,11H30V12H29zM31,11H32V12H31zM32,11H33V12H32zM35,11H36V12H35zM37,11H38V12H37zM38,11H39V12H38zM39,11H40V12H39zM3,12H4V13H3zM4,12H5V13H4zM10,12H11V13H10zM11,12H12V13H11zM12,12H13V13H12zM13,12H14V13H13zM14,12H15V13H14zM15,12H16V13H15zM17,12H18V13H17zM19,12H20V13H19zM21,12H22V13H21zM25,12H26V13H25zM28,12H29V13H28zM29,12H30V13H29zM30,12H31V13H30zM33,12H34V13H33zM34,12H35V13H34zM35,12H36V13H35zM36,12H37V13H36zM37,12H38V13H37zM38,12H39V13H38zM3,13H4V14H3zM4,13H5V14H4zM5,13H6V14H5zM8,13H9V14H8zM9,13H10V14H9zM17,13H18V14H17zM18,13H19V14H18zM19,13H20V14H19zM20,13H21V14H20zM21,13H22V14H21zM23,13H24V14H23zM26,13H27V14H26zM28,13H29V14H28zM30,13H31V14H30zM31,13H32V14H31zM35,13H36V14H35zM36,13H37V14H36zM37,13H38V14H37zM39,13H40V14H39zM3,14H4V15H3zM4,14H5V15H4zM5,14H6V15H5zM7,14H8V15H7zM12,14H13V15H12zM17,14H18V15H17zM19,14H20V15H19zM20,14H21V15H20zM21,14H22V15H21zM23,14H24V15H23zM26,14H27V15H26zM29,14H30V15H29zM30,14H31V15H30zM33,14H34V15H33zM37,14H38V15H37zM38,14H39V15H38zM39,14H40V15H39zM3,15H4V16H3zM6,15H7V16H6zM7,15H8V16H7zM9,15H10V16H9zM10,15H11V16H10zM11,15H12V16H11zM12,15H13V16H12zM13,15H14V16H13zM14,15H15V16H14zM15,15H16V16H15zM16,15H17V16H16zM17,15H18V16H17zM18,15H19V16H18zM19,15H20V16H19zM21,15H22V16H21zM24,15H25V16H24zM27,15H28V16H27zM30,15H31V16H30zM31,15H32V16H31zM33,15H34V16H33zM34,15H35V16H34zM39,15H40V16H39zM3,16H4V17H3zM4,16H5V17H4zM6,16H7V17H6zM7,16H8V17H7zM8,16H9V17H8zM11,16H12V17H11zM15,16H16V17H15zM16,16H17V17H16zM17,16H18V17H17zM18,16H19V17H18zM19,16H20V17H19zM23,16H24V17H23zM24,16H25V17H24zM28,16H29V17H28zM29,16H30V17H29zM30,16H31V17H30zM35,16H36V17H35zM36,16H37V17H36zM5,17H6V18H5zM6,17H7V18H6zM7,17H8V18H7zM8,17H9V18H8zM9,17H10V18H9zM11,17H12V18H11zM12,17H13V18H12zM13,17H14V18H13zM17,17H18V18H17zM18,17H19V18H18zM19,17H20V18H19zM21,17H22V18H21zM22,17H23V18H22zM23,17H24V18H23zM24,17H25V18H24zM27,17H28V18H27zM29,17H30V18H29zM30,17H31V18H30zM32,17H33V18H32zM33,17H34V18H33zM35,17H36V18H35zM36,17H37V18H36zM37,17H38V18H37zM38,17H39V18H38zM39,17H40V18H39zM3,18H4V19H3zM4,18H5V19H4zM5,18H6V19H5zM6,18H7V19H6zM7,18H8V19H7zM10,18H11V19H10zM13,18H14V19H13zM14,18H15V19H14zM19,18H20V19H19zM23,18H24V19H23zM25,18H26V19H25zM32,18H33V19H32zM34,18H35V19H34zM36,18H37V19H36zM37,18H38V19H37zM3,19H4V20H3zM5,19H6V20H5zM7,19H8V20H7zM8,19H9V20H8zM9,19H10V20H9zM11,19H12V20H11zM12,19H13V20H12zM14,19H15V20H14zM18,19H19V20H18zM20,19H21V20H20zM21,19H22V20H21zM23,19H24V20H23zM24,19H25V20H24zM25,19H26V20H25zM26,19H27V20H26zM27,19H28V20H27zM30,19H31V20H30zM31,19H32V20H31zM32,19H33V20H32zM33,19H34V20H33zM34,19H35V20H34zM37,19H38V20H37zM38,19H39V20H38zM7,20H8V21H7zM10,20H11V21H10zM13,20H14V21H13zM14,20H15V21H14zM15,20H16V21H15zM16,20H17V21H16zM17,20H18V21H17zM20,20H21V21H20zM22,20H23V21H22zM23,20H24V21H23zM24,20H25V21H24zM27,20H28V21H27zM29,20H30V21H29zM30,20H31V21H30zM34,20H35V21H34zM36,20H37V21H36zM37,20H38V21H37zM5,21H6V22H5zM6,21H7V22H6zM7,21H8V22H7zM8,21H9V22H8zM9,21H10V22H9zM14,21H15V22H14zM15,21H16V22H15zM17,21H18V22H17zM19,21H20V22H19zM20,21H21V22H20zM22,21H23V22H22zM23,21H24V22H23zM26,21H27V22H26zM30,21H31V22H30zM31,21H32V22H31zM32,21H33V22H32zM33,21H34V22H33zM37,21H38V22H37zM39,21H40V22H39zM3,22H4V23H3zM12,22H13V23H12zM13,22H14V23H13zM14,22H15V23H14zM17,22H18V23H17zM18,22H19V23H18zM19,22H20V23H19zM21,22H22V23H21zM23,22H24V23H23zM25,22H26V23H25zM26,22H27V23H26zM27,22H28V23H27zM28,22H29V23H28zM29,22H30V23H29zM32,22H33V23H32zM33,22H34V23H33zM34,22H35V23H34zM35,22H36V23H35zM39,22H40V23H39zM6,23H7V24H6zM9,23H10V24H9zM13,23H14V24H13zM14,23H15V24H14zM16,23H17V24H16zM17,23H18V24H17zM20,23H21V24H20zM22,23H23V24H22zM24,23H25V24H24zM27,23H28V24H27zM32,23H33V24H32zM33,23H34V24H33zM34,23H35V24H34zM35,23H36V24H35zM5,24H6V25H5zM6,24H7V25H6zM7,24H8V25H7zM8,24H9V25H8zM14,24H15V25H14zM15,24H16V25H15zM17,24H18V25H17zM18,24H19V25H18zM20,24H21V25H20zM21,24H22V25H21zM25,24H26V25H25zM26,24H27V25H26zM30,24H31V25H30zM32,24H33V25H32zM35,24H36V25H35zM37,24H38V25H37zM39,24H40V25H39zM4,25H5V26H4zM5,25H6V26H5zM7,25H8V26H7zM9,25H10V26H9zM10,25H11V26H10zM12,25H13V26H12zM15,25H16V26H15zM16,25H17V26H16zM18,25H19V26H18zM19,25H20V26H19zM23,25H24V26H23zM26,25H27V26H26zM29,25H30V26H29zM30,25H31V26H30zM33,25H34V26H33zM34,25H35V26H34zM36,25H37V26H36zM39,25H40V26H39zM3,26H4V27H3zM5,26H6V27H5zM6,26H7V27H6zM7,26H8V27H7zM8,26H9V27H8zM10,26H11V27H10zM11,26H12V27H11zM12,26H13V27H12zM13,26H14V27H13zM16,26H17V27H16zM17,26H18V27H17zM19,26H20V27H19zM21,26H22V27H21zM23,26H24V27H23zM25,26H26V27H25zM29,26H30V27H29zM30,26H31V27H30zM31,26H32V27H31zM32,26H33V27H32zM33,26H34V27H33zM34,26H35V27H34zM35,26H36V27H35zM36,26H37V27H36zM37,26H38V27H37zM5,27H6V28H5zM6,27H7V28H6zM7,27H8V28H7zM8,27H9V28H8zM9,27H10V28H9zM13,27H14V28H13zM14,27H15V28H14zM20,27H21V28H20zM29,27H30V28H29zM30,27H31V28H30zM33,27H34V28H33zM34,27H35V28H34zM35,27H36V28H35zM38,27H39V28H38zM3,28H4V29H3zM4,28H5V29H4zM5,28H6V29H5zM6,28H7V29H6zM11,28H12V29H11zM12,28H13V29H12zM13,28H14V29H13zM15,28H16V29H15zM17,28H18V29H17zM21,28H22V29H21zM23,28H24V29H23zM24,28H25V29H24zM26,28H27V29H26zM30,28H31V29H30zM35,28H36V29H35zM3,29H4V30H3zM4,29H5V30H4zM6,29H7V30H6zM7,29H8V30H7zM8,29H9V30H8zM9,29H10V30H9zM11,29H12V30H11zM14,29H15V30H14zM16,29H17V30H16zM18,29H19V30H18zM20,29H21V30H20zM22,29H23V30H22zM24,29H25V30H24zM25,29H26V30H25zM27,29H28V30H27zM28,29H29V30H28zM30,29H31V30H30zM34,29H35V30H34zM35,29H36V30H35zM38,29H39V30H38zM39,29H40V30H39zM3,30H4V31H3zM5,30H6V31H5zM7,30H8V31H7zM10,30H11V31H10zM16,30H17V31H16zM17,30H18V31H17zM19,30H20V31H19zM22,30H23V31H22zM23,30H24V31H23zM30,30H31V31H30zM31,30H32V31H31zM33,30H34V31H33zM35,30H36V31H35zM36,30H37V31H36zM37,30H38V31H37zM39,30H40V31H39zM3,31H4V32H3zM6,31H7V32H6zM8,31H9V32H8zM9,31H10V32H9zM11,31H12V32H11zM12,31H13V32H12zM15,31H16V32H15zM16,31H17V32H16zM17,31H18V32H17zM18,31H19V32H18zM21,31H22V32H21zM23,31H24V32H23zM24,31H25V32H24zM25,31H26V32H25zM26,31H27V32H26zM27,31H28V32H27zM31,31H32V32H31zM32,31H33V32H32zM33,31H34V32H33zM34,31H35V32H34zM35,31H36V32H35zM11,32H12V33H11zM12,32H13V33H12zM13,32H14V33H13zM15,32H16V33H15zM16,32H17V33H16zM18,32H19V33H18zM20,32H21V33H20zM22,32H23V33H22zM23,32H24V33H23zM30,32H31V33H30zM31,32H32V33H31zM35,32H36V33H35zM37,32H38V33H37zM38,32H39V33H38zM39,32H40V33H39zM3,33H4V34H3zM4,33H5V34H4zM5,33H6V34H5zM6,33H7V34H6zM7,33H8V34H7zM8,33H9V34H8zM9,33H10V34H9zM11,33H12V34H11zM13,33H14V34H13zM14,33H15V34H14zM18,33H19V34H18zM19,33H20V34H19zM20,33H21V34H20zM21,33H22V34H21zM22,33H23V34H22zM23,33H24V34H23zM24,33H25V34H24zM25,33H26V34H25zM26,33H27V34H26zM27,33H28V34H27zM29,33H30V34H29zM31,33H32V34H31zM33,33H34V34H33zM35,33H36V34H35zM39,33H40V34H39zM3,34H4V35H3zM9,34H10V35H9zM11,34H12V35H11zM14,34H15V35H14zM16,34H17V35H16zM17,34H18V35H17zM18,34H19V35H18zM19,34H20V35H19zM25,34H26V35H25zM27,34H28V35H27zM28,34H29V35H28zM30,34H31V35H30zM31,34H32V35H31zM35,34H36V35H35zM3,35H4V36H3zM5,35H6V36H5zM6,35H7V36H6zM7,35H8V36H7zM9,35H10V36H9zM11,35H12V36H11zM12,35H13V36H12zM18,35H19V36H18zM19,35H20V36H19zM21,35H22V36H21zM22,35H23V36H22zM23,35H24V36H23zM24,35H25V36H24zM26,35H27V36H26zM29,35H30V36H29zM30,35H31V36H30zM31,35H32V36H31zM32,35H33V36H32zM33,35H34V36H33zM34,35H35V36H34zM35,35H36V36H35zM3,36H4V37H3zM5,36H6V37H5zM6,36H7V37H6zM7,36H8V37H7zM9,36H10V37H9zM11,36H12V37H11zM12,36H13V37H12zM16,36H17V37H16zM28,36H29V37H28zM33,36H34V37H33zM37,36H38V37H37zM39,36H40V37H39zM3,37H4V38H3zM5,37H6V38H5zM6,37H7V38H6zM7,37H8V38H7zM9,37H10V38H9zM12,37H13V38H12zM13,37H14V38H13zM17,37H18V38H17zM20,37H21V38H20zM25,37H26V38H25zM26,37H27V38H26zM27,37H28V38H27zM31,37H32V38H31zM32,37H33V38H32zM35,37H36V38H35zM39,37H40V38H39zM3,38H4V39H3zM9,38H10V39H9zM12,38H13V39H12zM13,38H14V39H13zM18,38H19V39H18zM20,38H21V39H20zM21,38H22V39H21zM22,38H23V39H22zM23,38H24V39H23zM25,38H26V39H25zM27,38H28V39H27zM31,38H32V39H31zM32,38H33V39H32zM35,38H36V39H35zM36,38H37V39H36zM37,38H38V39H37zM38,38H39V39H38zM39,38H40V39H39zM3,39H4V40H3zM4,39H5V40H4zM5,39H6V40H5zM6,39H7V40H6zM7,39H8V40H7zM8,39H9V40H8zM9,39H10V40H9zM11,39H12V40H11zM13,39H14V40H13zM17,39H18V40H17zM19,39H20V40H19zM20,39H21V40H20zM25,39H26V40H25zM26,39H27V40H26zM27,39H28V40H27zM28,39H29V40H28zM31,39H32V40H31zM32,39H33V40H32zM34,39H35V40H34zM39,39H40V40H39z" id="qr-path" fill="#000000" fill-opacity="1" fill-rule="nonzero" stroke="none"/></svg>