<?xml version='1.0' encoding='UTF-8'?>
<svg width="31mm" height="31mm" version="1.1" viewBox="0 0 31 31" xmlns="http://www.w3.org/2000/svg"><path d="M3,3H4V4H3zM4,3H5V4H4zM5,3H6V4H5zM6,3H7V4H6zM7,3H8V4H7zM8,3H9V4H8zM9,3H10V4H9zM13,3H14V4H13zM15,3H16V4H15zM16,3H17V4H16zM19,3H20V4H19zM21,3H22V4H21zM22,3H23V4H22zM23,3H24V4H23zM24,3H25V4H24zM25,3H26V4H25zM26,3H27V4H26zM27,3H28V4H27zM3,4H4V5H3zM9,4H10V5H9zM11,4H12V5H11zM14,4H15V5H14zM15,4H16V5H15zM21,4H22V5H21zM27,4H28V5H27zM3,5H4V6H3zM5,5H6V6H5zM6,5H7V6H6zM7,5H8V6H7zM9,5H10V6H9zM11,5H12V6H11zM12,5H13V6H12zM13,5H14V6H13zM15,5H16V6H15zM17,5H18V6H17zM21,5H22V6H21zM23,5H24V6H23zM24,5H25V6H24zM25,5H26V6H25zM27,5H28V6H27zM3,6H4V7H3zM5,6H6V7H5zM6,6H7V7H6zM7,6H8V7H7zM9,6H10V7H9zM11,6H12V7H11zM12,6H13V7H12zM13,6H14V7H13zM15,6H16V7H15zM16,6H17V7H16zM17,6H18V7H17zM21,6H22V7H21zM23,6H24V7H23zM24,6H25V7H24zM25,6H26V7H25zM27,6H28V7H27zM3,7H4V8H3zM5,7H6V8H5zM6,7H7V8H6zM7,7H8V8H7zM9,7H10V8H9zM14,7H15V8H14zM17,7H18V8H17zM21,7H22V8H21zM23,7H24V8H23zM24,7H25V8H24zM25,7H26V8H25zM27,7H28V8H27zM3,8H4V9H3zM9,8H10V9H9zM12,8H13V9H12zM19,8H20V9H19zM21,8H22V9H21zM27,8H28V9H27zM3,9H4V10H3zM4,9H5V10H4zM5,9H6V10H5zM6,9H7V10H6zM7,9H8V10H7zM8,9H9V10H8zM9,9H10V10H9zM11,9H12V10H11zM13,9H14V10H13zM15,9H16V10H15zM17,9H18V10H17zM19,9H20V10H19zM21,9H22V10H21zM22,9H23V10H22zM23,9H24V10H23zM24,9H25V10H24zM25,9H26V10H25zM26,9H27V10H26zM27,9H28V10H27zM11,10H12V11H11zM12,10H13V11H12zM13,10H14V11H13zM14,10H15V11H14zM15,10H16V11H15zM3,11H4V12H3zM9,11H10V12H9zM11,11H12V12H11zM12,11H13V12H12zM16,11H17V12H16zM19,11H20V12H19zM20,11H21V12H20zM21,11H22V12H21zM24,11H25V12H24zM25,11H26V12H25zM26,11H27V12H26zM4,12H5V13H4zM5,12H6V13H5zM6,12H7V13H6zM8,12H9V13H8zM10,12H11V13H10zM13,12H14V13H13zM16,12H17V13H16zM18,12H19V13H18zM19,12H20V13H19zM23,12H24V13H23zM24,12H25V13H24zM25,12H26V13H25zM26,12H27V13H26zM4,13H5V14H4zM5,13H6V14H5zM6,13H7V14H6zM8,13H9V14H8zM9,13H10V14H9zM11,13H12V14H11zM12,13H13V14H12zM18,13H19V14H18zM19,13H20V14H19zM20,13H21V14H20zM24,13H25V14H24zM26,13H27V14H26zM27,13H28V14H27zM3,14H4V15H3zM4,14H5V15H4zM8,14H9V15H8zM11,14H12V15H11zM12,14H13V15H12zM13,14H14V15H13zM14,14H15V15H14zM15,14H16V15H15zM17,14H18V15H17zM18,14H19V15H18zM19,14H20V15H19zM22,14H23V15H22zM24,14H25V15H24zM27,14H28V15H27zM3,15H4V16H3zM4,15H5V16H4zM6,15H7V16H6zM7,15H8V16H7zM8,15H9V16H8zM9,15H10V16H9zM11,15H12V16H11zM12,15H13V16H12zM13,15H14V16H13zM15,15H16V16H15zM17,15H18V16H17zM18,15H19V16H18zM21,15H22V16H21zM27,15H28V16H27zM3,16H4V17H3zM5,16H6V17H5zM10,16H11V17H10zM11,16H12V17H11zM17,16H18V17H17zM18,16H19V17H18zM22,16H23V17H22zM26,16H27V17H26zM3,17H4V18H3zM5,17H6V18H5zM7,17H8V18H7zM9,17H10V18H9zM11,17H12V18H11zM13,17H14V18H13zM14,17H15V18H14zM15,17H16V18H15zM17,17H18V18H17zM18,17H19V18H18zM19,17H20V18H19zM20,17H21V18H20zM22,17H23V18H22zM23,17H24V18H23zM24,17H25V18H24zM26,17H27V18H26zM27,17H28V18H27zM3,18H4V19H3zM6,18H7V19H6zM10,18H11V19H10zM12,18H13V19H12zM14,18H15V19H14zM17,18H18V19H17zM18,18H19V19H18zM19,18H20V19H19zM20,18H21V19H20zM21,18H22V19H21zM22,18H23V19H22zM24,18H25V19H24zM25,18H26V19H25zM27,18H28V19H27zM3,19H4V20H3zM6,19H7V20H6zM7,19H8V20H7zM9,19H10V20H9zM13,19H14V20H13zM14,19H15V20H14zM15,19H16V20H15zM16,19H17V20H16zM19,19H20V20H19zM20,19H21V20H20zM21,19H22V20H21zM22,19H23V20H22zM23,19H24V20H23zM25,19H26V20H25zM11,20H12V21H11zM12,20H13V21H12zM15,20H16V21H15zM17,20H18V21H17zM19,20H20V21H19zM23,20H24V21H23zM3,21H4V22H3zM4,21H5V22H4zM5,21H6V22H5zM6,21H7V22H6zM7,21H8V22H7zM8,21H9V22H8zM9,21H10V22H9zM12,21H13V22H12zM14,21H15V22H14zM15,21H16V22H15zM19,21H20V22H19zM21,21H22V22H21zM23,21H24V22H23zM27,21H28V22H27zM3,22H4V23H3zM9,22H10V23H9zM15,22H16V23H15zM17,22H18V23H17zM19,22H20V23H19zM23,22H24V23H23zM26,22H27V23H26zM27,22H28V23H27zM3,23H4V24H3zM5,23H6V24H5zM6,23H7V24H6zM7,23H8V24H7zM9,23H10V24H9zM13,23H14V24H13zM14,23H15V24H14zM16,23H17V24H16zM18,23H19V24H18zM19,23H20V24H19zM20,23H21V24H20zM21,23H22V24H21zM22,23H23V24H22zM23,23H24V24H23zM25,23H26V24H25zM3,24H4V25H3zM5,24H6V25H5zM6,24H7V25H6zM7,24H8V25H7zM9,24H10V25H9zM12,24H13V25H12zM14,24H15V25H14zM15,24H16V25H15zM18,24H19V25H18zM20,24H21V25H20zM21,24H22V25H21zM26,24H27V25H26zM27,24H28V25H27zM3,25H4V26H3zM5,25H6V26H5zM6,25H7V26H6zM7,25H8V26H7zM9,25H10V26H9zM12,25H13V26H12zM13,25H14V26H13zM15,25H16V26H15zM16,25H17V26H16zM19,25H20V26H19zM24,25H25V26H24zM25,25H26V26H25zM27,25H28V26H27zM3,26H4V27H3zM9,26H10V27H9zM13,26H14V27H13zM15,26H16V27H15zM17,26H18V27H17zM19,26H20V27H19zM20,26H21V27H20zM21,26H22V27H21zM22,26H23V27H22zM23,26H24V27H23zM27,26H28V27H27zM3,27H4V28H3zM4,27H5V28H4zM5,27H6V28H5zM6,27H7V28H6zM7,27H8V28H7zM8,27H9V28H8zM9,27H10V28H9zM11,27H12V28H11zM12,27H13V28H12zM13,27H14V28H13zM14,27H15V28H14zM17,27H18V28H17zM18,27H19V28H18zM19,27H20V28H19zM21,27H22V28H21zM24,27H25V28H24zM27,27H28V28H27z" id="qr-path" fill="#000000" fill-opacity="1" fill-rule="nonzero" stroke="none"/></svg>